<mxfile modified="2023-04-24T20:55:22.270Z" host="app.diagrams.net" agent="Mozilla/5.0 (Windows NT 10.0; Win64; x64) AppleWebKit/537.36 (KHTML, like Gecko) Chrome/112.0.0.0 Safari/537.36" etag="ADkz_Gv7BMGLHLu0nOd_" version="21.2.1" type="github">
  <diagram id="Ht1M8jgEwFfnCIfOTk4-" name="Page-1">
    <mxGraphModel dx="2963" dy="1570" grid="1" gridSize="10" guides="1" tooltips="1" connect="1" arrows="1" fold="1" page="1" pageScale="1" pageWidth="1600" pageHeight="1200" background="#FFCE9F" math="0" shadow="0">
      <root>
        <mxCell id="0" />
        <mxCell id="1" parent="0" />
        <mxCell id="kwlhXM6vKTwfm8hAGy3k-5" value="&lt;font style=&quot;font-size: 24px;&quot;&gt;R710 pve-lan&lt;/font&gt;" style="rounded=1;whiteSpace=wrap;html=1;" vertex="1" parent="1">
          <mxGeometry x="100" y="120" width="430" height="320" as="geometry" />
        </mxCell>
        <mxCell id="kwlhXM6vKTwfm8hAGy3k-6" value="&lt;font style=&quot;font-size: 24px;&quot;&gt;R720 - ghost.lan&lt;/font&gt;" style="rounded=1;whiteSpace=wrap;html=1;" vertex="1" parent="1">
          <mxGeometry x="585" y="120" width="430" height="320" as="geometry" />
        </mxCell>
        <mxCell id="kwlhXM6vKTwfm8hAGy3k-12" value="eno1" style="rounded=1;whiteSpace=wrap;html=1;" vertex="1" parent="1">
          <mxGeometry x="630" y="370" width="70" height="50" as="geometry" />
        </mxCell>
        <mxCell id="kwlhXM6vKTwfm8hAGy3k-13" value="eno2" style="rounded=1;whiteSpace=wrap;html=1;" vertex="1" parent="1">
          <mxGeometry x="720" y="370" width="70" height="50" as="geometry" />
        </mxCell>
        <mxCell id="kwlhXM6vKTwfm8hAGy3k-14" value="eno3" style="rounded=1;whiteSpace=wrap;html=1;" vertex="1" parent="1">
          <mxGeometry x="810" y="370" width="70" height="50" as="geometry" />
        </mxCell>
        <mxCell id="kwlhXM6vKTwfm8hAGy3k-15" value="eno4" style="rounded=1;whiteSpace=wrap;html=1;" vertex="1" parent="1">
          <mxGeometry x="900" y="370" width="70" height="50" as="geometry" />
        </mxCell>
        <mxCell id="kwlhXM6vKTwfm8hAGy3k-16" value="eno1" style="rounded=1;whiteSpace=wrap;html=1;" vertex="1" parent="1">
          <mxGeometry x="145" y="370" width="70" height="50" as="geometry" />
        </mxCell>
        <mxCell id="kwlhXM6vKTwfm8hAGy3k-17" value="eno2" style="rounded=1;whiteSpace=wrap;html=1;" vertex="1" parent="1">
          <mxGeometry x="235" y="370" width="70" height="50" as="geometry" />
        </mxCell>
        <mxCell id="kwlhXM6vKTwfm8hAGy3k-18" value="eno3" style="rounded=1;whiteSpace=wrap;html=1;" vertex="1" parent="1">
          <mxGeometry x="325" y="370" width="70" height="50" as="geometry" />
        </mxCell>
        <mxCell id="kwlhXM6vKTwfm8hAGy3k-19" value="eno4" style="rounded=1;whiteSpace=wrap;html=1;" vertex="1" parent="1">
          <mxGeometry x="415" y="370" width="70" height="50" as="geometry" />
        </mxCell>
        <mxCell id="kwlhXM6vKTwfm8hAGy3k-20" value="enp4s0" style="rounded=1;whiteSpace=wrap;html=1;" vertex="1" parent="1">
          <mxGeometry x="145" y="290" width="70" height="50" as="geometry" />
        </mxCell>
      </root>
    </mxGraphModel>
  </diagram>
</mxfile>
